# xmcd
#
# Track frame offsets:
#	150
#	2202
#	14231
#	24605
#	41761
#	56070
#	71500
#	86498
#	104700
#	117701
#	131251
#	144199
#	162029
#	173954
#	191900
#	205316
#	220621
#	235949
#	253230
#	268619
#	284353
#
# Disc length: 3991 seconds
#
# Revision: 0
# Processed by: cddbd v1.5.1PL0 Copyright (c) Steve Scherf et al.
# Submitted via: dBpowerAMP V4.0
#
DISCID=410f9515
DTITLE=varios - As Melhores Country Internacional
DYEAR=1900
DGENRE=Country
TTITLE0=Abertura country
TTITLE1=Little bitty
TTITLE2=Jambalaya
TTITLE3=I Ti try
TTITLE4=San Francisco
TTITLE5=Achy breaky heart
TTITLE6=Thank god for the radlo
TTITLE7=Any Man
TTITLE8=Please don't go
TTITLE9=Mrs robinson
TTITLE10=You shock me all nite long
TTITLE11=There goes
TTITLE12=He was onta
TTITLE13=Chattahoochee
TTITLE14=Brand new man
TTITLE15=I can see clearly now
TTITLE16=Knockin on heaven's door
TTITLE17=Livin on love
TTITLE18=She's not the cheatin kind
TTITLE19=Yellow river
TTITLE20=If you can't give me love
EXTD=
EXTT0=
EXTT1=
EXTT2=
EXTT3=
EXTT4=
EXTT5=
EXTT6=
EXTT7=
EXTT8=
EXTT9=
EXTT10=
EXTT11=
EXTT12=
EXTT13=
EXTT14=
EXTT15=
EXTT16=
EXTT17=
EXTT18=
EXTT19=
EXTT20=
PLAYORDER=
